<svg width="156" height="64" viewBox="0 0 156 64" fill="none" xmlns="http://www.w3.org/2000/svg">
<g clip-path="url(#clip0_102_511)">
<path d="M27.5963 54.228V60.6162H25.1904V49.6855H28.2003C28.5535 49.6855 28.6303 49.9675 28.748 50.1982C29.5159 51.7619 30.2837 53.3308 31.0362 54.8996C31.1539 55.1406 31.2819 55.3764 31.4508 55.7045C31.589 55.479 31.7068 55.3252 31.7938 55.1508C32.5821 53.5358 33.3807 51.9208 34.1434 50.2956C34.213 50.095 34.3489 49.9243 34.5285 49.8115C34.7081 49.6987 34.9208 49.6506 35.1314 49.6752C35.9811 49.7111 36.8308 49.6752 37.7318 49.6752V60.5752C36.94 60.6921 36.1365 60.7059 35.3412 60.6162V54.0332L35.1416 53.987L32.2852 59.7087H30.7086L27.7908 54.187L27.5963 54.228Z" fill="#012183"/>
<path d="M88.9725 53.0333L89.126 52.2797H91.3374C91.3374 52.5155 91.3937 52.7206 91.3937 52.9257C91.3937 55.1269 91.3937 57.3263 91.3937 59.5241C91.3937 62.2824 89.6686 63.9743 86.9147 64C85.8937 64.0071 84.8854 63.7735 83.9713 63.3181C83.7153 63.1899 83.4594 63.0207 83.1881 62.8464C83.4952 62.2414 83.7665 61.6979 84.0634 61.1237C84.2886 61.2365 84.478 61.3237 84.6572 61.4211C85.4687 61.8559 86.4006 62.0109 87.3088 61.862C87.5844 61.8382 87.8519 61.7567 88.094 61.6229C88.3361 61.489 88.5475 61.3057 88.7145 61.0849C88.8814 60.864 89.0002 60.6105 89.0632 60.3408C89.1261 60.071 89.1319 59.7911 89.08 59.519C88.9849 59.5668 88.8956 59.6253 88.8138 59.6933C87.3139 61.2314 83.9149 60.5597 82.9782 57.8937C82.241 55.8019 83.0498 53.4691 84.8876 52.5463C86.2134 51.8849 87.5136 51.8593 88.7012 52.9052C88.7404 52.9404 88.7833 52.9714 88.8291 52.9975C88.8291 52.9975 88.8701 53.0128 88.9725 53.0333ZM89.0288 56.2582C89.0504 55.868 88.9602 55.4797 88.7688 55.1391C88.5775 54.7984 88.2929 54.5197 87.9487 54.3356C87.655 54.1682 87.3197 54.0885 86.9823 54.1058C86.6449 54.123 86.3195 54.2366 86.0444 54.433C85.6633 54.7254 85.3818 55.1288 85.2388 55.5878C85.0958 56.0468 85.0983 56.5389 85.2459 56.9965C85.3128 57.2434 85.4294 57.474 85.5886 57.6741C85.7477 57.8743 85.9461 58.0397 86.1714 58.1602C86.3967 58.2807 86.6443 58.3538 86.8989 58.375C87.1535 58.3962 87.4097 58.365 87.6518 58.2834C88.0674 58.1383 88.4253 57.863 88.6724 57.4982C88.9195 57.1334 89.0427 56.6986 89.0237 56.2582H89.0288Z" fill="#012183"/>
<path d="M64.0944 49.0857H66.4542C66.4849 50.3828 66.4542 51.6851 66.4542 53.1001C66.6948 52.9412 66.8586 52.8335 67.0173 52.7207C67.4423 52.3967 67.9443 52.1893 68.4738 52.119C69.0033 52.0487 69.542 52.1179 70.0366 52.3198C70.5313 52.5217 70.9648 52.8493 71.2944 53.2702C71.624 53.6912 71.8383 54.191 71.9161 54.7202C71.9622 54.9569 71.9879 55.197 71.9929 55.438C71.9929 57.1248 71.9929 58.8116 71.9929 60.565C71.2045 60.6544 70.4102 60.6802 69.6177 60.6419C69.5921 60.3753 69.5563 60.1702 69.5512 59.96C69.5512 58.8064 69.5512 57.6529 69.5512 56.4993C69.5513 56.1569 69.5342 55.8146 69.5 55.4739C69.4957 55.1626 69.3852 54.8622 69.1868 54.6225C68.9885 54.3828 68.7142 54.2183 68.4096 54.1563C68.0795 54.0756 67.7316 54.113 67.426 54.2618C67.1204 54.4106 66.8763 54.6616 66.7357 54.9715C66.5591 55.389 66.4619 55.8358 66.4491 56.2891C66.4132 57.4427 66.4491 58.5962 66.4491 59.7498V60.6111H64.0944V49.0857Z" fill="#012183"/>
<path d="M44.3864 55.3714C44.3608 54.5459 44.1663 54.2793 43.4957 54.1153C42.8339 53.9852 42.1482 54.0603 41.53 54.3306C41.2075 54.4536 40.9055 54.628 40.5062 54.8177L39.5081 53.3257C41.3304 52.2029 43.1579 51.6799 45.1798 52.4951C45.6183 52.6404 46.0038 52.9129 46.2872 53.278C46.5707 53.6432 46.7394 54.0845 46.7718 54.5459C46.8589 56.5454 46.7974 58.5501 46.7974 60.6009H44.7499L44.5912 59.9395C44.518 59.9579 44.4475 59.9854 44.3813 60.0215C43.7356 60.5518 42.9172 60.8246 42.0831 60.7877C41.2489 60.7508 40.4577 60.4068 39.8613 59.8216C38.7197 58.6731 38.7914 56.3096 40.7775 55.72C41.5013 55.5427 42.2399 55.4328 42.9838 55.3919C43.4292 55.3252 43.8848 55.3714 44.3864 55.3714ZM44.3864 57.0428C43.7005 57.0428 43.0606 57.0069 42.431 57.0428C42.2134 57.0459 42.0047 57.13 41.8457 57.2788C41.6867 57.4277 41.5888 57.6305 41.571 57.8477C41.5731 58.0629 41.6483 58.271 41.7841 58.4377C41.9199 58.6045 42.1083 58.7201 42.3183 58.7654C43.5111 59.1243 44.4325 58.4014 44.3711 57.0428H44.3864Z" fill="#012183"/>
<path d="M77.5112 60.77C76.9264 60.7951 76.3426 60.7007 75.7954 60.4924C75.2483 60.2842 74.7492 59.9664 74.3287 59.5587C73.9081 59.1509 73.5749 58.6616 73.3493 58.1206C73.1238 57.5797 73.0106 56.9983 73.0167 56.4121C73.0226 55.8328 73.1436 55.2604 73.3725 54.7283C73.6014 54.1962 73.9337 53.715 74.3501 53.3128C74.7664 52.9106 75.2585 52.5953 75.7977 52.3854C76.3369 52.1755 76.9124 52.0751 77.4907 52.0901C79.7123 52.0901 81.9544 53.5667 82.0363 56.4378C82.1028 58.8628 80.0962 60.7598 77.5112 60.77ZM75.4636 56.4173C75.4636 57.6529 76.2007 58.5706 77.2808 58.6987C78.4991 58.8423 79.4103 58.0784 79.5741 56.7761C79.6788 56.1871 79.5473 55.5804 79.208 55.0879C78.8687 54.5954 78.349 54.2569 77.762 54.146C77.4554 54.1204 77.1469 54.1612 76.8574 54.2656C76.568 54.37 76.3043 54.5355 76.0844 54.7509C75.8644 54.9664 75.6933 55.2267 75.5827 55.5142C75.472 55.8017 75.4244 56.1097 75.4431 56.4173H75.4636Z" fill="#012183"/>
<path d="M53.7746 52.2849H56.1446V60.5598C55.4005 60.6656 54.6477 60.6966 53.8974 60.6521L53.6927 59.8164C53.3852 60.1442 53.0091 60.3997 52.5913 60.5646C52.1736 60.7295 51.7246 60.7996 51.2765 60.77C50.5704 60.7777 49.8853 60.5291 49.348 60.0701C48.8107 59.6111 48.4574 58.9728 48.3536 58.2732C48.1079 56.3096 48.3075 54.3306 48.2666 52.2952H50.6315C50.6315 52.5566 50.6827 52.8079 50.6827 53.0181C50.6827 54.228 50.6827 55.4329 50.6827 56.6377C50.6741 56.9053 50.6912 57.1732 50.7339 57.4375C50.7551 57.7635 50.896 58.0701 51.1295 58.2982C51.3629 58.5263 51.6724 58.6599 51.9983 58.6731C52.3467 58.7213 52.7009 58.645 52.9987 58.4574C53.2964 58.2699 53.5186 57.9831 53.6261 57.6477C53.7379 57.2631 53.7913 56.8639 53.7848 56.4634C53.7848 55.3611 53.7848 54.2639 53.7848 53.1668L53.7746 52.2849Z" fill="#012183"/>
<path d="M62.5894 58.145L63.3726 59.7088C62.9832 60.18 62.4582 60.5194 61.8692 60.6809C61.2802 60.8424 60.6558 60.818 60.0811 60.6111C59.5388 60.4423 59.0666 60.1003 58.7366 59.6374C58.4066 59.1745 58.237 58.6162 58.2537 58.0476C58.2127 57.053 58.2537 56.0635 58.2537 55.0689V54.0742L57.2606 53.9614V52.3516L58.2485 52.1926V49.7368H60.634V52.249H62.6201V54.0332H60.6647V56.084C60.6647 56.5967 60.6647 57.1094 60.6647 57.6221C60.6647 58.6475 61.3097 59.0115 62.2004 58.4681C62.2976 58.4014 62.4051 58.2886 62.5894 58.145Z" fill="#012183"/>
<path d="M130.707 36.581C130.707 38.0165 130.661 39.2675 130.707 40.5082C130.729 40.9812 130.652 41.4535 130.481 41.8949C130.31 42.3363 130.049 42.7371 129.714 43.0717C126.469 46.6965 126.479 46.7067 121.524 46.7016H114.173H112.202V40.6005H116.241C118.253 40.6005 120.265 40.6005 122.271 40.6005C123.909 40.6005 124.263 40.2365 124.344 38.6266C124.344 38.0063 124.344 37.3808 124.344 36.4989H110.897C110.841 35.8222 110.779 35.3966 110.779 34.9608C110.779 31.0028 110.779 27.0397 110.749 23.0765C110.721 22.6402 110.79 22.2032 110.95 21.7965C111.11 21.3898 111.358 21.0234 111.675 20.7233C112.632 19.8158 113.462 18.7699 114.444 17.8932C114.924 17.4257 115.545 17.1317 116.21 17.0575C120.864 16.9908 125.512 17.0267 130.16 17.0575C130.272 17.0575 130.385 17.1497 130.671 17.2728V30.203C132.489 30.6132 134.147 30.3876 136.067 30.3825C136.067 28.7521 136.231 27.1832 136.031 25.6605C135.647 22.7023 136.686 20.5335 138.903 18.5699C140.126 17.4881 141.237 16.9088 142.87 16.9498C146.509 17.0472 150.159 16.9806 153.804 16.9806H155.969V19.6568C155.969 23.2457 155.928 26.8346 155.969 30.4235C155.98 30.9199 155.888 31.4132 155.698 31.8721C155.509 32.331 155.226 32.7456 154.869 33.0895C151.664 36.5041 151.685 36.5092 146.986 36.4989C142.208 36.4989 137.43 36.4989 132.652 36.4989C132.13 36.4989 131.578 36.54 130.707 36.581ZM149.647 23.1175C147.492 23.1175 145.501 23.1175 143.505 23.1175C143.361 23.1096 143.218 23.1333 143.085 23.187C142.952 23.2408 142.832 23.3231 142.735 23.4283C142.637 23.5335 142.564 23.659 142.52 23.7958C142.476 23.9325 142.463 24.0773 142.481 24.2198C142.481 26.2142 142.481 28.2035 142.481 30.4081C144.636 30.4081 146.576 30.4081 148.496 30.4081C148.653 30.4291 148.814 30.413 148.964 30.361C149.115 30.3091 149.251 30.2226 149.363 30.1087C149.474 29.9947 149.557 29.8563 149.606 29.7045C149.654 29.5526 149.667 29.3916 149.642 29.234C149.658 27.2499 149.642 25.2555 149.642 23.1175H149.647ZM124.278 23.0868C122.23 23.0868 120.434 23.0868 118.621 23.0868C117.961 23.0868 117.239 23.1893 117.214 23.9994C117.147 26.1066 117.122 28.2189 117.214 30.3056H124.273L124.278 23.0868Z" fill="#012183"/>
<path d="M66.6487 17.0523V46.6092H25.6971C27.412 44.9327 28.9989 43.5331 30.3707 41.995C31.7435 40.4427 32.9833 38.7774 34.0769 37.0167C35.1746 35.1844 36.118 33.2637 36.8974 31.2745C37.6499 29.357 38.1157 27.3267 38.7351 25.2605H42.4668V40.4569H60.0402C60.4194 39.1749 60.4424 37.8135 60.1067 36.5194H47.0022C46.8982 36.0705 46.8264 35.6147 46.7872 35.1556C46.7872 31.1309 46.8282 27.1011 46.7872 23.0764C46.7775 22.6083 46.8633 22.1432 47.0393 21.7094C47.2154 21.2757 47.4779 20.8825 47.811 20.554C51.0462 16.9907 51.0308 16.9651 55.8324 16.9651C58.786 16.9651 61.7397 16.9651 64.6984 16.9651C65.3025 16.9651 65.9167 17.0164 66.6487 17.0523ZM53.3139 30.2901H60.25V23.261H53.3139V30.2901Z" fill="#012183"/>
<path d="M91.0712 36.4989C91.0712 38.0369 91.0354 39.3341 91.0712 40.6414C91.0983 41.0806 91.0278 41.5204 90.865 41.929C90.7021 42.3377 90.4509 42.7052 90.1294 43.005L90.0014 43.1434C86.7867 46.6861 86.7867 46.6862 82.0056 46.6913H72.469V40.6004H75.3202C77.8336 40.6004 80.347 40.6004 82.8553 40.6004C84.2938 40.6004 84.5906 40.262 84.6674 38.8009C84.7033 38.1241 84.6674 37.4371 84.6674 36.5809H71.2763C71.1915 36.0527 71.1335 35.5205 71.1022 34.9864C71.1022 31.0232 71.1432 27.0652 71.1022 23.1021C71.0942 22.6357 71.1808 22.1726 71.3568 21.7408C71.5328 21.3089 71.7945 20.9174 72.126 20.5899C75.3305 17.001 75.3202 17.001 80.1218 17.001C83.014 17.001 85.9062 17.001 88.7933 17.001H91.02V30.0542C92.4636 30.5105 97.7003 30.5977 99.9219 30.2132V17.1599H106.182V36.4527C101.309 36.5194 96.354 36.4732 91.0712 36.4989ZM84.6009 23.1687C82.4407 23.1687 80.4494 23.1687 78.4581 23.1687C78.3312 23.1557 78.203 23.1707 78.0824 23.2125C77.9618 23.2543 77.8518 23.3221 77.7602 23.411C77.6685 23.4999 77.5973 23.6078 77.5517 23.7271C77.506 23.8464 77.4869 23.9743 77.4958 24.1018C77.4958 26.1526 77.4958 28.2034 77.4958 30.3003H84.6111L84.6009 23.1687Z" fill="#012183"/>
<path d="M100.065 0H106.3C106.497 2.0015 106.497 4.01757 106.3 6.01907H100.065V0Z" fill="#012183"/>
<path d="M56.3033 7.56226V13.4378C54.167 13.5895 52.0235 13.6152 49.8842 13.5147V7.56226H56.3033Z" fill="#012183"/>
<path d="M101.934 7.57251V13.4173H95.6783V7.57251H101.934Z" fill="#012183"/>
<path d="M65.0004 7.60327V13.4378H58.7502V7.60327H65.0004Z" fill="#012183"/>
<path d="M110.682 7.56226V13.4326C108.609 13.6275 106.587 13.4993 104.299 13.5352C104.181 11.5151 104.222 9.60792 104.253 7.56226H110.682Z" fill="#012183"/>
<path d="M18.505 27.4806C22.4722 23.1329 26.3012 18.9647 30.0943 14.7606C30.31 14.4796 30.5913 14.2559 30.9135 14.1093C31.2358 13.9627 31.589 13.8976 31.9423 13.9198C33.2681 13.9762 34.5939 13.9198 36.2115 13.9198L18.9196 33.0383L11.9169 26.6142L14.5634 23.6559L18.505 27.4806Z" fill="#08C4A0"/>
<path d="M0.0921435 14.3863C6.64027 13.9099 12.9278 11.622 18.2542 7.77759C20.0919 8.82862 21.8374 9.9463 23.6854 10.8538C25.5333 11.7612 27.412 12.3919 29.3879 13.1763L25.4617 17.2779L24.5914 16.7652C17.384 12.3611 8.90186 16.6934 7.18701 24.0916C5.74346 30.3516 10.115 36.909 16.4933 38.0524C19.039 38.5143 21.6659 38.078 23.9265 36.8179C26.1872 35.5577 27.9417 33.5516 28.8914 31.1412C28.9835 30.9002 29.0449 30.6285 29.1473 30.3158H23.9209C24.0159 30.1237 24.1272 29.9402 24.2536 29.7672C25.5299 28.4 26.8114 27.0448 28.0979 25.7015C28.2246 25.5279 28.3891 25.3855 28.5789 25.2852C28.7687 25.1848 28.9788 25.129 29.1934 25.1221C31.2921 25.1529 33.3909 25.1221 35.4897 25.1221C35.6441 25.1411 35.7966 25.1737 35.9453 25.2196C35.6513 26.827 35.239 28.4104 34.7116 29.9569C32.5053 36.4989 28.1593 41.2362 22.2828 44.6457C21.1925 45.2814 20.0407 45.8197 18.9248 46.4145C18.7741 46.5132 18.6002 46.5704 18.4204 46.5803C18.2407 46.5902 18.0615 46.5524 17.901 46.4709C12.5517 43.9586 7.98044 40.5287 4.74527 35.4735C2.54149 31.9227 1.09655 27.953 0.501661 23.8148C0.0890995 20.91 -0.0736047 17.9751 0.0153546 15.0425C0.029378 14.8226 0.0550132 14.6035 0.0921435 14.3863Z" fill="#08C4A0"/>
</g>
<defs>
<clipPath id="clip0_102_511">
<rect width="156" height="64" fill="white"/>
</clipPath>
</defs>
</svg>
